<?xml version="1.0" encoding="utf-8"?>
<!DOCTYPE svg PUBLIC "-//W3C//DTD SVG 1.0//EN" "http://www.w3.org/TR/2001/REC-SVG-20010904/DTD/svg10.dtd">
<svg version="1.0" xmlns="http://www.w3.org/2000/svg" width="1024px" height="1024px" viewBox="0 0 1024 1024" preserveAspectRatio="xMidYMid meet">
 <g fill="#000000">
  <path d="M0 512 l0 -512 512 0 512 0 0 512 0 512 -512 0 -512 0 0 -512z m335.9 449.3 c10.2 -5.1 13.1 -13 13.1 -35.7 0 -21.1 -3.3 -31.9 -11.2 -37.1 -8.4 -5.6 -26.3 -7.5 -36.8 -4 -8 2.7 -15.2 10.2 -17.8 18.6 -2.7 8.9 -3.6 20.7 -2.2 30.8 1.6 11.9 4.2 18.1 9.5 23 7.2 6.6 13.4 8.2 29.4 7.6 8.9 -0.3 11.2 -0.8 16 -3.2z m328.3 1.7 c3.2 -1.5 3.4 -1.9 4.7 -12.3 1.6 -11.3 1.4 -21.2 -0.3 -22.6 -2.5 -2.1 -10.9 -2.5 -14.4 -0.7 -3.4 1.7 -3.8 3 -4.5 11.3 -0.6 7.2 -1.8 8.5 -8.1 8.1 -4.5 -0.3 -5.2 -0.6 -7 -3.8 -1.8 -3.1 -2.1 -5.2 -2.1 -17.5 0 -11.9 0.3 -14.6 2 -18 l2 -4 7 -0.3 c3.9 -0.1 9.9 0.4 13.4 1.2 8.8 2.1 10.6 1.2 12.1 -5.8 1.3 -6.5 0.1 -10.3 -4 -12.2 -8.3 -4 -38.9 -6 -43.6 -2.9 -5.3 3.4 -7.6 9.2 -10.1 25.5 -1.3 8.8 -1.4 12.6 -0.5 23.6 1.7 20.5 5.5 28.4 14.7 31 6.5 1.8 34.7 1.4 38.7 -0.6z m-287 0.4 c6.8 -1.2 7.8 -3 7.8 -15 0 -12.3 0.8 -14.4 5.3 -14.4 4.9 -0.1 12 -1.9 13.9 -3.7 1.9 -1.7 2.5 -8.7 1 -11 -0.5 -0.8 -4.4 -1.5 -9.7 -1.9 -5 -0.4 -9.6 -1.1 -10.2 -1.7 -1.4 -1 -1.8 -12.4 -0.5 -14.3 0.4 -0.7 4.8 -1.3 10.6 -1.6 9 -0.4 10 -0.6 11.8 -2.8 1.6 -2 1.9 -3.5 1.5 -7.3 -0.2 -2.6 -1 -5.4 -1.6 -6 -0.8 -0.8 -6.2 -1.2 -17.4 -1.2 -17.6 0.1 -21.1 0.6 -22.6 3.3 -3.2 6 -5.2 72 -2.3 75.5 1.2 1.4 2.5 1.8 7.7 2.5 0.6 0.1 2.7 -0.1 4.7 -0.4z m110.8 -2.4 c0.5 -0.8 1.2 -3.7 1.5 -6.5 0.4 -2.7 1.2 -5.6 1.7 -6.2 0.6 -0.8 3.3 -1.3 6.4 -1.3 6 0 6 0 8.3 8.5 1.9 7.2 2.9 7.9 11.1 7.7 4 -0.1 7.9 -0.7 8.6 -1.2 2 -1.7 2.3 -6.7 1.3 -21 -1.6 -23.3 -5.2 -44.9 -9 -53.6 -2.2 -5.2 -3.7 -5.6 -20.3 -5.7 -15.3 0 -18.9 1 -21 6.3 -5.6 14.1 -11.6 69.3 -7.9 73.1 2.8 2.8 17.6 2.7 19.3 -0.1z m72.3 1.1 c0.5 -0.5 0.9 -3.1 0.9 -5.8 -0.2 -7.3 0.4 -8.3 4.7 -8.3 4.3 0 6.2 1.7 10.6 9.3 1.6 2.8 3.9 5.3 5.4 5.9 2.7 1 15.5 0.7 16.7 -0.4 0.3 -0.4 -1.4 -3.5 -4 -6.9 -5.8 -7.8 -6.2 -12.3 -1.7 -17.5 4.2 -4.7 5.1 -9 5.1 -23.5 0 -15.6 -1.6 -21.9 -7 -27 -5.3 -5 -10.9 -6.4 -26.5 -6.4 -15.7 0 -20.3 1.6 -21.8 7.5 -1.2 4.6 -0.2 67.7 1.2 71.2 0.7 1.8 1.9 2.8 3.8 3.1 3.8 0.7 11.5 -0.1 12.6 -1.2z m147.4 -0.7 c0.8 -1.1 1.3 -4.9 1.3 -10.6 0 -10.6 0.5 -11 11.8 -10.6 l7.7 0.3 1 10.2 c0.6 5.7 1.6 10.8 2.3 11.5 1.6 1.6 18.1 1.3 19.7 -0.3 1.1 -1.1 2.2 -70.2 1.1 -74.3 -0.8 -3.1 -6.1 -5.6 -11.8 -5.6 -6.9 0 -8.1 1.5 -9.4 11.6 -1.4 10.5 -2.3 11.4 -11.1 11.4 -5.6 0 -6.4 -0.3 -7.9 -2.5 -1.3 -2 -1.6 -4 -1.1 -8.9 0.4 -4.3 0.2 -6.9 -0.6 -8 -3 -4.1 -16.8 -4 -20.9 0.1 -1.2 1.3 -2.3 4.4 -2.9 8.9 -1.2 8.3 -1.7 60.8 -0.6 64.6 0.9 3.5 5.1 4.9 13.6 4.4 4.8 -0.3 6.8 -0.9 7.8 -2.2z m22.2 -107.4 c20.9 -1.9 34.1 -5.4 48.4 -12.8 15 -7.9 25.7 -19.4 30.8 -33.2 3.3 -9.1 3.4 -26.2 0.2 -36.5 -6.2 -19.7 -19.8 -33.6 -48.6 -49.9 -17.5 -9.8 -24.9 -15.4 -28.2 -21.1 -2.5 -4.2 -2.7 -5.3 -2.3 -12.8 0.5 -9.6 3.2 -15.7 8.7 -19.4 7.3 -4.9 16.2 -5.4 37.5 -2.3 16.3 2.4 20.1 1.9 24.2 -3.5 8.1 -10.6 7.2 -22.1 -2.4 -31.5 -19.8 -19.2 -66.7 -27.3 -104.4 -17.9 -37.3 9.3 -58.2 37.7 -51.4 69.9 4.7 22.5 18.8 37.9 55.3 60.4 10.7 6.6 13.3 10 14 18.4 0.8 8.4 -1.1 13.9 -6.3 18.9 -6.6 6.3 -11.8 7.5 -31.7 7.2 -13.6 -0.2 -16.7 0 -19.4 1.4 -15.2 8 -18.6 41.4 -5.6 53.8 3.4 3.1 5 3.8 14.8 5.7 26.4 5.2 47.5 6.8 66.4 5.2z m-351.4 -4 c19.2 -1.6 32.7 -3.8 34.5 -5.5 2.3 -2.3 2.7 -27.5 0.6 -37.4 -1.8 -8.7 -4.1 -11.6 -10 -12.7 -2.2 -0.5 -18.5 -0.8 -36.1 -0.9 -17.6 0 -32.8 -0.4 -33.7 -0.8 -2.5 -1.3 -3.9 -6.8 -4.5 -18.3 l-0.5 -10 3 -2.6 c4.3 -3.6 10.4 -5.4 26.2 -7.7 15.3 -2.2 16.4 -2.9 17.6 -10.8 1.4 -9.2 -1.6 -23.2 -5.8 -26.9 -1.7 -1.6 -4.4 -2 -19.2 -2.5 -9.4 -0.3 -17.2 -0.7 -17.2 -0.8 -1.9 -2.1 -2.9 -8.4 -2.9 -18.3 0 -16.9 -2.1 -15.7 30.3 -17.4 26.3 -1.4 37.5 -2.5 42.4 -4.5 3.7 -1.5 5.8 -7.9 7.8 -24 1.2 -10.1 0 -21.5 -2.8 -26.3 -2.3 -3.9 -8.1 -6.1 -21.6 -8.4 -8.4 -1.4 -17.2 -1.7 -52.1 -1.6 -58 0.1 -66.8 1.4 -76 11.6 -4.9 5.4 -7.6 12.5 -9.5 25 -1.1 7.1 -3.5 64.3 -4.6 109.8 -1 40.9 1.6 73.2 6.6 83.1 2.8 5.3 8.7 7.2 29.5 9.3 7.8 0.8 85.2 -0.3 98 -1.4z m567.2 -0.3 c3.5 -1.1 3.9 -1.6 4.7 -6.2 1 -5.4 0.1 -27.8 -3.4 -85.5 -2.1 -33.3 -2.4 -73.9 -0.7 -75.7 0.5 -0.4 9.8 -0.9 20.8 -1 21.5 -0.2 26 -1 27.7 -4.8 5 -10.9 3.5 -53.6 -2.1 -59.2 -2.3 -2.4 -12.3 -3.3 -46.2 -4.2 -36 -1.1 -97.6 0 -104.3 1.8 -3.3 0.9 -4.3 1.8 -5.5 4.9 -3.8 9.4 -7.4 37.9 -6.2 48.5 1.2 9.6 0.7 9.4 26.3 11.6 6.2 0.5 11.9 1.5 12.7 2.1 2.2 1.8 1.9 11.2 -1.5 55.3 -1.6 21.2 -3.2 47 -3.6 57.4 -1 28.6 1.7 49.4 6.9 52.7 2.1 1.4 16.9 3.1 35.2 4 12.2 0.6 35.2 -0.4 39.2 -1.7z m-772.2 -1.7 c18.4 -2.5 25.4 -5.7 31.2 -14.4 4.5 -6.6 7.2 -16.1 8.4 -29.1 2.5 -28 -3.9 -46.1 -19.8 -56.8 -7.2 -4.7 -7.3 -4.9 -7.3 -9.2 0 -4 0.3 -4.5 4.9 -7.9 12.4 -8.9 21.9 -27 24 -46 1.7 -15 -2.3 -37.7 -8.6 -48.5 -10.8 -18.5 -35.1 -27.2 -75.7 -27.2 -33.2 0.1 -63.1 6.3 -67.1 14.1 -3.9 7.6 -6.2 29.5 -7.6 75 -1.4 44.3 0 114.6 2.6 124.9 3.9 16 12.4 23.9 27.9 26.1 8.1 1.2 77 0.4 87.1 -1z m321.8 -0.3 c10 -2.5 11.3 -4.6 14.6 -25.3 1 -6.7 2.4 -13.1 3 -14.3 1.8 -3.3 5.1 -4.5 12.6 -4.5 8 0 13.2 2.1 13.9 5.7 5.1 28.4 9.7 38 18.6 39.8 6.2 1.1 20.4 1.1 33.5 -0.1 13.7 -1.3 18.1 -2.5 20 -5.3 8.2 -12.7 -0.5 -124.3 -14.6 -186.4 -4.9 -21.5 -10.1 -35.4 -15.1 -40 -2.9 -2.7 -11.1 -3.9 -37.1 -5.4 -30.4 -1.8 -61.9 0.4 -72.2 5 -5.2 2.3 -7.5 5.7 -11 16.1 -8.5 25.9 -17.3 77.5 -22.5 132.9 -3.2 34.4 -3.2 67.9 0.2 74.8 3.5 7.1 12.8 9.5 34.8 8.8 8.5 -0.2 18.1 -1.1 21.3 -1.8z m-183.2 -292.9 l0 -37.3 5.7 -3.6 c3.1 -2 7.5 -4.4 9.7 -5.3 2.1 -0.9 4.6 -2.3 5.5 -3.1 1.8 -1.6 15.3 -5.5 19.2 -5.5 3.9 0 4.2 2.2 3.3 21.7 -0.7 15.7 -0.6 16.5 1.2 16 3.5 -1 12.8 -2.7 18.4 -3.2 l5.6 -0.6 0.7 -6.7 c0.3 -3.7 0.6 -13.2 0.6 -21.2 l0 -14.5 6.3 -1.8 c10.7 -3 28.9 -6.8 37.2 -7.8 4.4 -0.5 8.6 -1.1 9.4 -1.4 4.1 -1.6 59.3 -5.3 79.9 -5.5 l8.2 0 0 17.3 c0 12.4 0.4 17.8 1.3 18.9 1.9 2.4 7.4 3.8 15.1 3.8 12.5 0 11.5 1.7 11.8 -19.9 l0.3 -18.6 13 0 13 0 0.3 20.7 c0.2 18.5 0.4 20.9 2 21.7 2.4 1.2 18.6 5.1 21.5 5.1 l2.5 0 0.6 -15.7 c0.4 -8.7 0.9 -18.8 1.2 -22.5 l0.6 -6.8 4.6 0 c2.5 0 9.3 1.1 15.1 2.4 5.8 1.3 14.2 3.2 18.6 4.1 13.6 3 27.8 7.6 39.3 12.6 l6.2 2.8 0 27.5 0 27.4 4.8 1.8 c2.6 1 8.4 3.8 13 6.2 4.6 2.4 8.5 4.2 8.8 3.9 0.3 -0.2 0.8 -11.7 1.1 -25.6 l0.6 -25.1 2.9 0 c1.7 0 5.2 1.6 8.6 3.9 3.1 2.1 9 5.9 13 8.5 l7.2 4.7 0 26 c0 25.6 0.4 29.1 3.4 31.1 0.6 0.4 18.6 0.8 39.9 0.8 36.5 0 38.8 -0.1 38.3 -1.7 -0.3 -1 -1 -3.8 -1.6 -6.3 -1.3 -4.9 -6.4 -14.8 -11.5 -22 -1.7 -2.5 -4 -6.2 -5 -8.4 -1.1 -2.1 -4.4 -5.9 -7.4 -8.4 -2.9 -2.6 -6.3 -6.1 -7.5 -7.9 -1.3 -1.8 -4.4 -4.9 -6.9 -6.8 -4 -3.1 -4.7 -4.1 -4.7 -7.1 0 -1.9 0.6 -3.7 1.3 -4 4.9 -1.8 39.9 5.2 44.6 9 1.2 0.9 1.3 -0.3 0.8 -8.4 -1.6 -22 -7.5 -41.3 -15.2 -49.9 -1.8 -2 -4.4 -5.5 -5.9 -7.8 -1.4 -2.4 -4.6 -6.4 -7.1 -8.9 -9.9 -10.3 -12.5 -14.1 -12.5 -17.8 l0 -3.6 9.3 0 c5 0 12 0.6 15.5 1.4 4.3 0.9 6.2 0.9 6.2 0.2 0 -2.2 -5.9 -29.4 -8.5 -39.1 -8.4 -31.5 -7.7 -29.4 -12.8 -39.7 -2.9 -6 -4.8 -8.7 -6 -8.7 -3.9 -0.2 -5.7 -2 -5.7 -5.9 0 -3.1 0.6 -4.3 3 -6 4.2 -3.1 4.8 -6.5 1.8 -10.5 -1.3 -1.7 -4.2 -7 -6.5 -11.7 -2.2 -4.7 -5.4 -11.2 -7 -14.5 -4.6 -9.3 -18.7 -34.8 -21.1 -38.2 -1.2 -1.7 -2.2 -4.6 -2.2 -6.3 l0 -3.3 7.9 0.6 7.8 0.5 4.9 -3.9 c2.7 -2.2 8.2 -5.5 12.2 -7.4 3.9 -1.9 7.2 -3.8 7.2 -4.3 0 -1.3 -24.8 -3.4 -31 -2.7 -7 0.9 -26.1 5.3 -27.5 6.4 -0.5 0.5 -4.1 2 -8 3.4 -8.9 3.2 -18.2 7.5 -21.8 9.9 -1.5 1.1 -6 3.6 -10 5.7 -3.9 2.1 -10.7 6.3 -15.1 9.2 -4.3 3 -9.9 6.6 -12.5 8.1 -2.5 1.5 -6.8 4.6 -9.6 7 -2.7 2.4 -7.2 5.7 -10 7.3 -2.7 1.5 -6.4 3.9 -8.1 5.2 -1.7 1.3 -4.5 2.3 -6.2 2.3 -5.4 0 -4.4 -4.3 4 -16.8 4 -5.9 7.8 -11.3 8.6 -12.1 0.7 -0.7 2.2 -3.1 3.3 -5.2 1.1 -2.2 4.1 -6.3 6.7 -9.2 2.6 -2.8 6 -7 7.7 -9.2 5.9 -8.1 33.9 -36.4 42 -42.7 3.4 -2.5 6.7 -5.4 7.5 -6.3 1.3 -1.5 1 -1.6 -2.6 -1 -17.6 2.9 -29.4 6.2 -40.9 11.5 -3.5 1.6 -8 3.6 -10 4.5 -5.4 2.2 -20.5 11.5 -20.5 12.6 0 0.5 -2.2 2 -4.8 3.3 -2.7 1.4 -7.3 5.1 -10.4 8.4 -3 3.3 -7.2 7.1 -9.4 8.6 -3.6 2.4 -5 4.1 -9.8 11.9 -1.3 2.1 -2.4 2.7 -5.1 2.7 -3.4 0 -3.5 -0.1 -3.5 -4.2 0.1 -10.2 2.1 -27.1 4.3 -36.4 2.7 -11 8.4 -24.4 12.1 -28.4 1.3 -1.4 3.3 -4.4 4.5 -6.7 l2.1 -4.2 -5.3 1.8 c-6.6 2.3 -16.3 7.6 -20.2 11.1 -1.6 1.5 -5 3.9 -7.5 5.3 -8.2 4.7 -21.9 19 -32.8 34 -7.8 10.8 -9.2 13.2 -15.1 25.6 -6.1 13 -9.1 20.4 -9.8 24.4 -0.5 2.4 -1 2.7 -4.3 2.7 -3.4 0 -3.8 -0.3 -4.3 -3.2 -0.5 -3.1 -4.8 -13.6 -8.3 -20.3 -0.9 -1.6 -2.2 -4.1 -2.9 -5.5 -0.7 -1.4 -2.5 -5 -3.9 -8 -6.2 -13.4 -31 -41.9 -43.6 -50.3 -3 -2 -7.4 -5 -9.8 -6.7 -2.3 -1.6 -4.5 -3 -4.8 -3 -0.3 0 -2.4 -1.3 -4.7 -2.9 -4.3 -2.9 -11.4 -5.7 -12.3 -4.8 -0.7 0.6 4.2 10.4 5.4 10.9 0.5 0.1 2.9 4.1 5.4 8.8 6.9 12.8 9.8 26.3 9.8 45.3 l0 14.7 -3.8 0 c-3.7 0 -3.9 -0.2 -6.7 -6.1 -1.7 -3.4 -4.5 -7.5 -6.5 -9.1 -1.9 -1.7 -6 -5.3 -9 -8.2 -7.5 -6.9 -33.2 -23.9 -40 -26.4 -3 -1.1 -10.2 -3.9 -16 -6.2 -6.2 -2.5 -15 -4.9 -21.5 -6.1 -6 -1.1 -11.8 -2.2 -12.7 -2.5 -1 -0.3 -1.8 -0.3 -1.8 -0.1 0 0.7 11.8 9.7 12.7 9.7 0.4 0 3.4 3 6.7 6.6 3.2 3.6 7.5 7.6 9.6 9 2 1.4 5.4 4.9 7.5 7.9 2 3 5.7 7 8.1 9 2.5 2 5.3 5.4 6.5 7.6 1.1 2.2 4.2 6.2 6.9 8.9 2.7 2.7 5.7 6.2 6.7 7.7 0.9 1.5 5.9 9.1 11 16.8 6.9 10.4 9.3 14.9 9.3 17.3 0 3 -0.2 3.2 -3.3 3.2 -2.1 0 -4.1 -0.8 -5.1 -1.9 -1 -1.1 -3.9 -2.9 -6.4 -4.1 -2.6 -1.2 -6 -3.5 -7.7 -5 -2.6 -2.5 -13.9 -10.2 -30 -20.5 -2.6 -1.6 -9.1 -5.4 -14.4 -8.4 -34.9 -19.4 -52.1 -25.1 -83.7 -27.7 -9.7 -0.8 -23.7 0.3 -23.2 1.8 0.2 0.6 6.5 3.8 13.8 7.2 l13.5 6.1 0.3 3.7 c0.3 3.4 0 3.9 -3.7 5.8 -2.3 1.1 -4.1 2.2 -4.1 2.5 0 1.5 10.3 22.1 13.3 26.5 2.4 3.6 3.7 6.6 3.7 8.8 l0 3.4 -5.7 -0.4 c-3.2 -0.3 -10.5 -1.5 -16.1 -2.7 -5.7 -1.2 -10.5 -2.1 -10.6 -1.9 -0.2 0.2 -2.6 4.8 -5.4 10.3 -7.5 14.7 -17.4 41.2 -22.3 60 -2 7.7 -1.9 7.9 4 9 2 0.3 8.8 3.2 15.1 6.3 9.7 4.7 12.8 6.8 19.7 13.5 4.5 4.3 8.4 9 8.8 10.4 0.3 1.4 1.7 4.8 3 7.6 1.4 2.8 2.5 6.8 2.5 8.9 0 3.5 -0.2 3.8 -2.9 3.8 -1.5 0 -7.3 -1.3 -12.7 -2.9 -16.3 -4.7 -18.9 -5.1 -33.3 -5.1 l-13.9 0 -1.1 7.8 c-1.7 12.3 -2.9 24.8 -3.7 38.3 l-0.7 12.6 10.9 1 c16.2 1.5 29.2 7.2 45.4 20 4.9 3.9 6.9 6.3 10.1 12.6 2.1 4.3 3.9 9.2 3.9 10.8 0 2.6 -0.3 2.9 -3.5 2.9 -1.8 0 -6 -0.7 -9.1 -1.5 -13.9 -3.6 -38.3 -2.9 -53.6 1.6 l-6.8 2 0 26.8 0 26.9 4.3 0.6 c2.3 0.3 8.9 1 14.7 1.6 11.6 1.2 19 4.1 30.5 11.9 l6 4 24.3 0.1 24.2 0 0.1 -37.2z"/>
  <path d="M306.5 945.7 c-1.1 -1.8 -1.5 -6.4 -1.7 -20.9 -0.4 -22.5 -0.6 -22.1 10.6 -22.6 6.4 -0.4 7.7 -0.1 9.4 1.6 2.7 2.7 3.4 9.4 3 26.5 -0.3 13.2 -0.4 14 -2.7 15.8 -1.8 1.5 -3.9 1.9 -9.7 1.9 -6.6 0 -7.5 -0.2 -8.9 -2.3z"/>
  <path d="M489.5 933.7 c-1.7 -1.3 -1.8 -2.6 -1.3 -16.2 0.7 -16.9 1 -17.5 8.5 -18.2 7.3 -0.7 9.3 1.3 10.3 10.7 0.5 4.1 0.9 10.5 1 14.3 0 9 -1.6 10.7 -10.3 10.7 -3.7 0 -7.1 -0.6 -8.2 -1.3z"/>
  <path d="M562.3 934.5 c-2.2 -1.6 -2.3 -2.1 -2.3 -18.8 0 -9.5 0.4 -17.7 0.8 -18.3 1.4 -2.2 5.1 -3.4 10.2 -3.4 4.1 0 5.6 0.5 7.6 2.5 l2.6 2.6 -0.4 16.4 c-0.4 19.5 -0.4 19.7 -10 20.3 -4.7 0.2 -6.9 -0.1 -8.5 -1.3z"/>
  <path d="M129.3 801.3 c-1.5 -2.3 -1.8 -5.3 -1.8 -21.4 0 -18.3 0.1 -18.9 2.3 -21.1 1.9 -1.9 3.5 -2.3 10 -2.6 10.1 -0.4 13.1 1.4 17.2 10.1 2.6 5.4 3 7.4 3 14.8 0 8.1 -0.2 9 -3.2 13.5 -4.5 6.7 -10 9.4 -19 9.4 -6.2 0 -6.9 -0.2 -8.5 -2.7z"/>
  <path d="M130.5 702.7 c-2.8 -2.4 -2.9 -2.9 -3.3 -12.6 -0.3 -5.6 -0.1 -14.5 0.3 -19.7 0.9 -12 1.9 -13.4 10.3 -13.4 8.3 0 15.3 3.5 19.2 9.6 2.7 4.3 3 5.6 3 12.9 0 9.7 -1.9 15.9 -6.4 21.2 -3.3 3.8 -3.4 3.8 -11.8 4.1 -7.8 0.4 -8.7 0.2 -11.3 -2.1z"/>
  <path d="M511.5 758.5 c-7.6 -2.7 -7.8 -3.5 -7.2 -24 0.9 -24.7 3.4 -52.1 5.3 -55.6 2.2 -4.3 6.8 -6.2 15.9 -6.6 6.9 -0.4 8.6 -0.1 12.5 1.9 2.5 1.3 5 3.4 5.7 4.9 2 4.1 5.3 39.7 5.3 56.4 0 14.9 -0.1 15.4 -2.5 18.3 -1.4 1.7 -4.6 3.7 -7.2 4.6 -5.9 2 -22.2 2.1 -27.8 0.1z"/>
  <path d="M408.9 445 c-9 -1.1 -42.8 -12.4 -44.3 -14.9 -0.3 -0.5 -1.7 -1.2 -3.1 -1.5 -1.3 -0.3 -5.3 -2.3 -8.7 -4.3 -3.5 -2 -8.1 -4.7 -10.3 -5.8 -2.5 -1.3 -5.1 -4 -7 -7 l-3 -4.8 -0.3 -56.4 -0.3 -56.3 3.5 0 c1.9 0 3.6 0.4 3.8 0.8 0.2 0.5 3.5 3.2 7.3 6.1 3.9 3 7.3 5.9 7.8 6.7 0.4 0.7 4 3.6 8 6.5 3.9 2.9 10.1 7.7 13.6 10.8 3.5 3.1 8.3 7 10.7 8.6 2.4 1.7 8.1 5.8 12.6 9.3 4.6 3.5 11.9 8.6 16.2 11.5 4.4 2.9 9.8 6.4 12 7.9 2.3 1.5 5 3.2 6.1 3.8 1.1 0.6 5.8 3.6 10.5 6.6 4.7 3 11 6.6 14 8 3 1.4 7.7 4.1 10.3 6 5 3.6 22.3 12.4 24.4 12.4 0.6 0 4.6 1.6 8.8 3.5 4.3 2 10.3 4.2 13.4 4.9 5.4 1.2 5.6 1.4 5.9 4.7 0.3 3.9 2.4 2.6 -20.8 12.9 -5.2 2.3 -11.2 5.1 -13.3 6.2 -5.9 3.1 -31.9 11.3 -43.5 13.7 -5.9 1.2 -24.1 1.3 -34.3 0.1z m16.3 -29.6 c5.2 -1.7 8.1 -4.4 10.2 -9.4 1.3 -3.2 1.2 -4 -0.5 -8.5 -2.4 -6.4 -5.9 -10.1 -10.6 -11.4 -5.1 -1.5 -7.1 -1.4 -12.7 0.5 -5.1 1.8 -7.3 4.3 -9.6 11.3 -1.2 3.6 -1.1 4.3 1.5 9.4 2.5 4.9 3.3 5.6 8.4 7.5 6.9 2.5 7.6 2.6 13.3 0.6z"/>
  <path d="M618 445.4 c-8 -1.6 -20.2 -5 -24.8 -7 -3 -1.3 -7.3 -2.9 -9.5 -3.4 -2.3 -0.6 -10.7 -4.2 -18.7 -8.1 -25 -12.1 -23.5 -11.1 -23.8 -15.6 l-0.3 -3.9 7.6 -1.3 c4.3 -0.7 10 -2.5 13.1 -4.2 3.1 -1.6 6.4 -2.9 7.3 -2.9 0.9 0 2.8 -0.8 4.1 -1.7 2.4 -1.7 9.1 -5.3 24.5 -13.2 3.9 -2 8.2 -4.4 9.5 -5.4 5.5 -3.9 15.8 -10.5 20 -12.8 2.5 -1.3 7.2 -4.6 10.5 -7.2 3.3 -2.6 8.3 -5.9 11.2 -7.3 2.9 -1.4 5.8 -3.3 6.5 -4.1 0.7 -0.9 3.5 -3.3 6.3 -5.4 2.7 -2 8.2 -6.1 12 -9.1 3.9 -2.9 8.4 -6.2 10 -7.2 1.7 -1.1 4.9 -3.9 7.2 -6.3 2.3 -2.4 4.8 -4.3 5.6 -4.3 0.7 0 3.5 -2.3 6.2 -5.1 2.8 -2.7 7.3 -6.5 10.1 -8.4 2.8 -1.9 5.6 -4.1 6.3 -4.9 0.8 -1 2.9 -1.6 5.2 -1.6 3.3 0 4 0.4 4.5 2.6 0.4 1.5 0.4 26.4 0 55.3 -0.9 66 1.2 59.4 -23.6 72.6 -13.7 7.3 -29 13.4 -39 15.5 -2.5 0.6 -6.3 1.7 -8.5 2.7 -3 1.2 -8 1.7 -20.5 1.9 -9.1 0.1 -17.6 0 -19 -0.2z m30.8 -29.9 c4.5 -1.4 5.5 -2.2 7.4 -5.8 4.4 -8.6 2 -18 -5.8 -22.5 -3.2 -1.9 -4.9 -2.2 -9.7 -1.8 -7.1 0.5 -11.5 3.6 -14.7 10.1 -2.6 5.3 -2.2 8.3 1.9 14.7 4.2 6.5 10.9 8.2 20.9 5.3z"/>
 </g>
 <g fill="#ffffff">
  <path d="M302 967 c-6.9 -1.3 -9.6 -2.6 -14.5 -7.1 -2.9 -2.7 -5.1 -5.9 -6.4 -9.4 -4.7 -12.5 -5.2 -36.6 -1 -50.1 2.7 -8.7 9.8 -16.2 17.9 -19 7.1 -2.4 23.8 -2.5 32.7 -0.1 16.9 4.4 21.2 13.6 21.3 44.3 0 26 -2.5 33.4 -13.3 38.8 -5.3 2.6 -6.7 2.9 -19 3.2 -7.2 0.2 -15.2 -0.1 -17.7 -0.6z m20.1 -23.9 c2.2 -1.8 2.4 -2.8 2.7 -12.7 0.7 -21.1 -1.2 -26.1 -9.5 -25.1 -7.6 0.8 -7.8 1.5 -7.5 19.5 0.3 18.7 0.9 20.2 7.6 20.2 2.8 0 5.2 -0.7 6.7 -1.9z"/>
  <path d="M622.5 966.6 c-2.8 -0.8 -5.9 -2.5 -7.1 -4 -7.8 -9 -10.7 -40.7 -5.9 -64.1 2.9 -14 6.3 -18.4 15.3 -19.7 11.7 -1.6 41.8 2.4 45.6 6.2 2.5 2.4 3.1 10.8 1.4 17.5 -1.8 6.7 -4.5 7.5 -17.2 5.1 -12.4 -2.5 -14.6 -2.1 -17 2.9 -2.9 5.8 -2.9 24.7 0 29.6 1.4 2.4 2.7 3.4 4.4 3.4 3.2 0 5 -3.6 5 -10.2 0 -5.9 1.9 -8.7 6.6 -9.9 3.8 -1 16.1 0.1 17.9 1.6 1.8 1.5 2.1 16.6 0.4 28.7 -1.3 10.4 -1.5 10.8 -4.7 12.3 -4 2 -38 2.4 -44.7 0.6z"/>
  <path d="M365.8 966.4 c-5.2 -1 -5.3 -1.5 -5.2 -31.8 0 -27 1.5 -48 3.5 -51.8 1.5 -2.8 5.1 -3.3 25.6 -3.3 14.4 0 19.5 0.3 20.5 1.3 0.8 0.8 1.4 4.5 1.6 9 0.3 6.5 0.1 8.1 -1.6 10.2 -1.8 2.2 -2.8 2.4 -11.8 2.8 -5.8 0.3 -10.2 0.9 -10.6 1.6 -1.2 1.8 -0.9 7.3 0.5 8.3 0.6 0.6 5.2 1.3 10.1 1.7 5 0.3 9.2 0.8 9.4 1 0.2 0.3 0.8 2.2 1.3 4.3 1.1 4.9 0.2 11.8 -2 13.7 -1.8 1.7 -9 3.5 -13.8 3.6 -4.5 0 -5.3 2.2 -5.1 13.2 0.2 10.6 -0.3 12.8 -3.3 14.6 -2.2 1.4 -14.4 2.4 -19.1 1.6z"/>
  <path d="M470.7 966.1 c-6.1 -1.3 -6.2 -1.7 -6.1 -17.4 0.3 -20.8 4.8 -53.3 9 -63.7 2.2 -5.5 5.6 -6.4 23.4 -6.4 20 0.1 21.7 0.5 23.9 5.7 3.8 8.9 7.3 30.1 9.1 55.2 1.2 15.4 0.7 23.7 -1.3 25.3 -1.7 1.4 -16.7 2.4 -20.2 1.4 -3 -0.8 -4.5 -3.5 -7.2 -12.7 -0.6 -2 -1.6 -3.1 -3.1 -3.3 -3.5 -0.5 -4.9 1.3 -5.7 7.3 -0.7 6 -2.4 8.5 -5.8 8.5 -1.2 0 -4.4 0.2 -7.2 0.4 -2.7 0.3 -6.7 0.1 -8.8 -0.3z m32.4 -36.2 c2 -2 2.1 -2.8 1.4 -11.7 -0.4 -5.3 -1.1 -10.6 -1.6 -11.9 -1.3 -3.4 -4.4 -4.7 -7.7 -3.1 -3.1 1.5 -4 5.5 -4.1 19 -0.1 6.3 0.2 7.9 1.7 8.7 3 1.8 8 1.3 10.3 -1z"/>
  <path d="M544.7 966.3 c-1.9 -0.3 -3.2 -1.3 -3.8 -3.1 -1.4 -3.5 -2.5 -72.5 -1.2 -77.2 0.7 -2.7 1.8 -4 4.8 -5.5 3.5 -1.8 6 -2 20 -2 18.8 0 24 1.1 29.5 6.4 5.7 5.4 7 11.2 7 30 0 17.6 -0.8 21.7 -5.2 26.7 -3.6 4 -3.6 4 3.8 14.3 4.9 6.9 5.2 9.1 1.4 10.2 -3.8 1.1 -19.5 1 -22.3 0 -1.4 -0.6 -3.8 -3.3 -5.6 -6.3 -3.1 -5.6 -6.7 -9.5 -7.6 -8.6 -0.3 0.3 -0.7 3.3 -0.9 6.7 -0.2 3.4 -0.8 6.7 -1.4 7.3 -1.2 1.2 -13.8 1.9 -18.5 1.1z m31.2 -35.8 c1.3 -1.2 1.7 -4.5 1.9 -15 0.4 -13.2 0.4 -13.4 -2.2 -15.9 -1.4 -1.5 -3.5 -2.6 -4.6 -2.6 -2.4 0 -6.1 1.8 -7.2 3.4 -0.4 0.6 -0.8 7.5 -0.8 15.3 0 13.6 0.1 14.3 2.3 15.8 2.6 1.9 8.2 1.4 10.6 -1z"/>
  <path d="M687.3 965.9 c-2.3 -0.6 -3.5 -1.8 -4 -3.7 -1.1 -3.9 -0.6 -62.4 0.6 -70.7 0.8 -5.4 1.6 -7.5 3.5 -9.1 4.8 -4.2 21.7 -4.3 25.8 -0.2 1.8 1.8 2 2.9 1.5 8.8 -0.7 8.3 0.7 11 5.7 11 5.5 0 6.7 -1.7 8 -11.4 1.4 -10.8 2.4 -11.8 12.4 -11.8 8.1 -0.1 13.9 2.2 14.8 5.8 1.1 4.3 0 79.2 -1.2 80.4 -1.7 1.7 -23.9 1.8 -25.6 0.2 -0.7 -0.7 -1.7 -5.7 -2.3 -11.5 l-1 -10.2 -4.7 -0.3 c-8 -0.5 -8.8 0.4 -8.8 10.6 0 12.2 -0.4 12.5 -12.1 12.9 -5.2 0.1 -10.9 -0.2 -12.6 -0.8z"/>
  <path d="M700 857.3 c-9.8 -0.8 -29.1 -3.5 -39.5 -5.5 -9.8 -1.9 -11.4 -2.6 -14.8 -5.7 -5.7 -5.4 -8.1 -13.1 -8.2 -26.1 0 -17.7 5.7 -30.5 15.5 -34.4 3.3 -1.3 6.5 -1.5 18.8 -0.9 12.2 0.5 15.7 0.3 20.5 -1.1 10.6 -3.1 18 -13.2 16.2 -21.9 -1.3 -6.1 -4.4 -9.5 -13.8 -15.3 -18.2 -11.2 -27.3 -18 -36.3 -26.9 -15.3 -15.2 -21 -30.1 -20.1 -52.5 0.4 -9.4 0.9 -12.7 3.1 -18 9.4 -23.1 32.2 -37.5 66.4 -42.1 12.2 -1.6 39.1 -0.6 50.9 2 20.4 4.4 33.4 10.3 42.5 19.1 4.1 4.1 5.9 6.7 6.8 10 3.7 13.7 -1.6 29.4 -10.7 31.9 -5.4 1.5 -8.7 1.4 -24.7 -1 -7.9 -1.2 -16.3 -1.9 -19.2 -1.6 -11.9 1.2 -18.9 8.3 -20.1 20.2 -1.1 10.5 5.1 16.9 30.4 31.1 23.1 13.1 34 22.4 42.6 36.6 9.3 15.4 11.8 39.8 5.6 56.4 -7.9 21.1 -29.8 36.8 -60 42.8 -14.4 2.9 -36.2 4.1 -51.9 2.9z"/>
  <path d="M277.5 854.4 c-20.7 -2.1 -26.7 -4 -29.5 -9.3 -5.1 -10.1 -7.6 -41.8 -6.6 -85.6 0.9 -44.3 3.4 -105.6 4.6 -113.3 1.9 -12.5 4.6 -19.6 9.5 -25 9.3 -10.3 17.8 -11.5 79 -11.6 37.8 -0.1 46.6 0.2 55.1 1.6 13.5 2.3 19.3 4.5 21.6 8.4 4.8 8.3 4.4 34.3 -0.8 50.5 -1.1 3.4 -2.2 5 -4.2 5.8 -4.9 2 -16.1 3.1 -42.4 4.5 -31.7 1.7 -30.3 1 -30.3 14.4 0 7 1.2 13.5 2.9 15.3 0 0.1 7.8 0.5 17.2 0.8 19.5 0.7 20.1 0.9 22.9 9 1.9 5.4 3.1 19.8 2.1 26.4 -1.2 7.9 -2.3 8.6 -17.6 10.8 -15.8 2.3 -21.9 4.1 -26.2 7.7 -3 2.6 -3.1 2.7 -2.5 9.6 0.8 9 2.3 14.2 4.5 15.3 0.9 0.4 16.3 0.8 34.2 0.8 17.9 0.1 34.1 0.4 36.2 0.9 5.4 1.2 7.6 4.2 9.4 12.7 2.1 10.1 1.7 41 -0.6 43.4 -1.8 1.7 -15.2 3.9 -34.5 5.5 -12.7 1.1 -96 2.2 -104 1.4z"/>
  <path d="M903.5 854.4 c-18.3 -0.9 -33.1 -2.6 -35.2 -4 -8.1 -5.3 -9.1 -40.4 -3.3 -115.8 3.5 -44.7 3.6 -47.9 1.5 -49.6 -0.8 -0.6 -6.5 -1.6 -12.7 -2.1 -25.9 -2.2 -25.2 -1.9 -26.4 -12.6 -1.3 -12.5 2.3 -43.5 6.3 -53.4 1.2 -3.1 2.3 -4.1 5.2 -4.9 6.5 -1.9 71.9 -3 109.1 -2 35.3 1 45.4 1.9 47.7 4.3 5.7 5.7 7.2 54 2.1 65.2 -1.8 4 -6.5 4.8 -28 4.9 -10.8 0.1 -20 0.5 -20.5 0.9 -1.5 1.6 -0.6 53.8 1.6 86.7 2.6 39.5 3.6 70.1 2.4 75.5 -0.8 3.5 -1.4 4.2 -4.8 5.3 -4.1 1.3 -31.3 2.3 -45 1.6z"/>
  <path d="M83.4 852 c-15.5 -2.2 -24 -10.1 -27.9 -26.1 -2.6 -10.4 -4.1 -83.2 -2.6 -129.4 1.4 -46.8 3.6 -68.8 7.6 -76.5 6.2 -12 71.3 -18.6 108.8 -10.9 21 4.2 32.5 11.2 40 24 6 10.2 10.5 34.8 9.2 49.8 -1.9 21.9 -11.3 41.2 -24.6 50.7 -2.7 2 -4.9 4.2 -4.9 4.9 0 0.8 3.3 3.6 7.2 6.2 8.3 5.5 14.7 13.9 17.3 22.6 4.3 14.3 4.1 43.4 -0.4 57.9 -5.4 17 -13.3 22.7 -36.6 25.8 -10 1.4 -84.8 2.2 -93.1 1z m62.6 -53.2 c6.7 -3.4 11 -10.3 11 -17.7 0 -7.4 -4.5 -17.2 -9.2 -20.1 -4.3 -2.8 -12 -2.3 -15.1 0.9 -2.1 2 -2.2 3.1 -2.1 18 0 13.2 0.3 16.3 1.7 18.5 2.2 3.4 7.5 3.5 13.7 0.4z m4.6 -101.2 c1.8 -2.1 4 -5.9 4.8 -8.4 4 -11.7 0.3 -22.1 -9.7 -26.7 -11.1 -5.2 -14.2 -3 -15.2 11 -0.4 5.3 -0.5 12.9 -0.2 16.8 0.4 6.2 0.8 7.4 3.3 9.5 2.4 2.1 3.5 2.4 8.3 2 4.9 -0.4 5.9 -0.9 8.7 -4.2z"/>
  <path d="M449 851.5 c-7.2 -1.6 -10.9 -3.9 -12.8 -7.8 -2 -4.2 -3.4 -23.9 -2.7 -40.2 2.5 -61.6 13.6 -139.1 25 -173.5 3.5 -10.4 5.8 -13.8 11 -16.1 10.6 -4.7 44.8 -6.9 77.7 -5 26.4 1.5 34.7 2.7 37.6 5.4 8.4 7.8 17.2 41.3 24.6 94.2 6.4 45.3 10.1 106.7 7.7 126.5 -1.4 11 -2.7 13.6 -7.8 14.9 -9.9 2.7 -44.6 4 -54.3 2.2 -8.9 -1.8 -13.5 -11.4 -18.6 -39.8 -0.8 -4.5 -11.9 -7.2 -17.3 -4.4 -3.2 1.8 -4.1 4.4 -6.2 17.5 -3.3 20.7 -4.6 22.8 -14.6 25.3 -8.7 2.1 -41 2.7 -49.3 0.8z m87.3 -96.1 c2.6 -0.9 5.8 -2.9 7.2 -4.6 2.4 -2.8 2.5 -3.6 2.5 -15.3 0 -14.3 -3.5 -49.7 -5.3 -53.4 -0.7 -1.5 -3.2 -3.6 -5.7 -4.9 -7.7 -4 -19.2 -1.6 -22.4 4.7 -1.7 3.2 -4.3 29 -5.2 52.6 -0.6 13.8 -0.5 15.2 1.2 17.3 4.1 4.9 18.3 6.8 27.7 3.6z"/>
  <path d="M254.5 590.9 c-11.5 -7.8 -18.9 -10.7 -30.5 -11.9 -5.8 -0.6 -12.2 -1.2 -14.2 -1.3 -2 -0.2 -3.9 -0.5 -4.2 -0.8 -0.5 -0.4 -0.9 -46.8 -0.6 -58.6 0 -1.7 11.6 -5 22.8 -6.4 11.4 -1.5 35.2 -0.6 43.5 1.6 3.2 0.8 6 1.5 6.2 1.5 0.2 0 -1.3 -3.5 -3.5 -7.7 -3.1 -6.2 -5.1 -8.7 -9.8 -12.5 -17.1 -13.5 -30.9 -19.4 -47.1 -20.2 -5.1 -0.3 -9.5 -0.7 -9.7 -0.9 -0.4 -0.3 2.3 -39.1 3.1 -45.2 0.4 -2.2 0.8 -5.6 0.9 -7.5 0.2 -1.9 0.7 -5.4 1.1 -7.8 l0.8 -4.3 18.6 0.4 c20.8 0.4 20.9 0.4 34.1 4.5 5.2 1.7 9.7 2.8 9.9 2.6 0.2 -0.2 -0.8 -2.8 -2.2 -5.8 -1.5 -3.1 -2.9 -6.6 -3.3 -8 -0.3 -1.3 -4.2 -6 -8.7 -10.3 -6.9 -6.7 -10 -8.8 -19.7 -13.5 -6.3 -3.1 -13.2 -6 -15.2 -6.3 -7 -1.3 -7.2 -1.9 -4.8 -11.5 5 -20 15.3 -48 23.2 -63.5 2.8 -5.5 5.4 -10.4 5.8 -10.8 0.4 -0.4 6.5 0.4 13.6 1.9 7.1 1.4 14.2 2.9 15.8 3.2 3.2 0.5 3.2 0.6 -1.6 -6.5 -1.6 -2.3 -5.7 -10.3 -9.2 -17.7 l-6.4 -13.5 5.4 -2.5 c3 -1.4 5.4 -2.8 5.4 -3.1 0 -0.4 -4.4 -2.7 -9.7 -5.1 -23.9 -11 -27.6 -13.1 -25.2 -14.4 3.4 -1.9 20.6 -3.3 32.2 -2.7 32.9 1.7 51.4 7.5 87.8 27.8 5.3 3 11.8 6.8 14.4 8.4 16.4 10.4 27.4 18 30 20.5 1.7 1.6 4.6 3.6 6.6 4.4 2 0.8 5.2 2.8 7 4.3 3.9 3.3 4.1 3.6 -7.1 -13.2 -4.7 -7.1 -9.4 -14.3 -10.4 -15.8 -0.9 -1.5 -3.9 -5 -6.6 -7.7 -2.7 -2.7 -5.8 -6.7 -6.9 -8.9 -1.2 -2.2 -4 -5.6 -6.5 -7.6 -2.4 -2 -6.1 -6 -8.1 -9 -2.1 -3 -5.5 -6.5 -7.5 -7.9 -2.1 -1.4 -6.4 -5.4 -9.6 -9 -3.3 -3.6 -6.3 -6.6 -6.7 -6.6 -0.5 0 -4.5 -2.9 -9.1 -6.4 -4.5 -3.6 -9.5 -7.1 -11.1 -7.8 l-2.9 -1.3 3.9 -0.5 c10 -1.3 33.7 3.1 48.5 9 5.8 2.3 13 5.1 16 6.2 6.8 2.5 32.5 19.5 40 26.4 3 2.9 7.1 6.5 9 8.2 2 1.6 4.8 5.7 6.5 9.1 1.6 3.4 3.2 6.1 3.7 6.1 0.4 0 0.8 -5.3 0.8 -11.7 0 -15.7 -3.4 -30.4 -9.8 -42.3 -2.5 -4.7 -4.9 -8.7 -5.4 -8.8 -0.5 -0.2 -2 -2.7 -3.5 -5.5 -1.4 -2.9 -4.3 -6.7 -6.4 -8.5 -2.1 -1.8 -4.8 -4.7 -6 -6.4 l-2.2 -3 3.4 0.7 c1.9 0.4 5.2 1.4 7.4 2.2 2.2 0.8 6.7 2.4 10 3.5 3.3 1.2 7.9 3.4 10.2 4.9 2.3 1.6 4.4 2.9 4.7 2.9 0.3 0 2.5 1.4 4.8 3 2.4 1.7 6.8 4.7 9.8 6.7 12.6 8.4 37.4 36.9 43.6 50.3 1.4 3 3.2 6.6 3.9 8 0.7 1.4 2 3.9 2.9 5.5 3.5 6.7 7.8 17.2 8.3 20.2 0.7 4 1.9 4.3 2.6 0.5 0.7 -3.9 3.7 -11.3 9.8 -24.3 5.9 -12.4 7.3 -14.8 15.1 -25.6 10.9 -15 24.6 -29.3 32.8 -34 2.5 -1.4 5.9 -3.8 7.5 -5.3 3.8 -3.4 13.4 -8.7 20 -11.1 2.7 -1 8.3 -3.2 12.4 -4.9 10.5 -4.3 12 -3.3 5 3.3 -3.1 2.9 -6.6 7.2 -7.9 9.7 -1.2 2.5 -3.3 5.6 -4.6 7 -3.1 3.3 -9.8 18.1 -11.2 25 -0.7 3 -1.5 6.6 -1.8 8 -1.3 5.6 -1.8 9.6 -2.9 23.5 -0.6 6.8 -0.6 7 1.2 4.8 1 -1.2 2.9 -4 4.3 -6.2 1.3 -2.3 4.2 -5.3 6.4 -6.7 2.2 -1.5 6.4 -5.3 9.4 -8.6 3.1 -3.3 7.7 -7 10.4 -8.4 2.6 -1.3 4.8 -2.8 4.8 -3.3 0 -1.1 15.1 -10.4 20.5 -12.6 2 -0.9 6.5 -2.9 10 -4.5 12.2 -5.6 23.9 -8.8 41 -11.4 15.3 -2.3 20.5 -2.7 20.5 -1.9 0 0.4 -2.6 2.5 -5.8 4.5 -3.1 2.1 -8.6 6.2 -12.1 9 -10 8.1 -37.9 36.5 -43.6 44.3 -1.7 2.2 -5.1 6.4 -7.7 9.2 -2.6 2.9 -5.6 7 -6.7 9.2 -1.1 2.1 -2.6 4.5 -3.3 5.2 -0.8 0.8 -4.7 6.4 -8.8 12.4 -6.6 9.8 -7 10.7 -3.9 8.4 1.9 -1.4 5.7 -3.9 8.4 -5.4 2.8 -1.6 7.3 -4.9 10 -7.3 2.8 -2.4 7.1 -5.5 9.6 -7 2.6 -1.5 8.2 -5.1 12.5 -8.1 4.4 -2.9 11.2 -7.1 15.1 -9.2 4 -2.1 8.5 -4.6 10 -5.7 3.6 -2.4 12.9 -6.7 21.8 -9.9 3.9 -1.4 7.5 -2.9 8 -3.4 0.6 -0.4 6 -2 12 -3.5 9.6 -2.4 12.9 -2.8 26 -2.7 17 0 22.9 0.6 29.9 2.9 l4.8 1.6 -5.3 3 c-3 1.6 -8.1 4.3 -11.4 5.9 -3.3 1.6 -8.2 4.7 -11 6.9 -5.9 4.8 -8.7 5.7 -13 4.1 -1.7 -0.6 -4.2 -1.1 -5.4 -1.1 l-2.2 0 2.2 3.2 c2.5 3.5 16.6 28.9 21.2 38.3 1.6 3.3 4.8 9.8 7 14.5 2.3 4.7 5.1 9.9 6.4 11.5 4.2 5.7 4.5 8.1 1.9 12.3 -1.3 2.1 -3.4 4.6 -4.7 5.5 -2.4 1.6 -2.4 1.7 -0.4 3.2 1.8 1.4 2.1 1.4 3.1 0 0.9 -1.3 2.1 0.5 6.6 9.7 3 6.2 6.3 14.2 7.3 17.8 0.9 3.6 2.5 9.4 3.6 13 2.4 8.8 7.2 28.1 8.4 34.5 2.6 13.7 4.2 24.4 3.7 25 -0.2 0.2 -1.6 -0.5 -3.1 -1.6 -1.4 -1 -5.7 -2.6 -9.6 -3.4 -6.9 -1.4 -19.5 -2.1 -19.5 -0.9 0 0.7 7 9 12.5 14.7 2.4 2.5 5.9 7 7.8 9.9 1.8 2.9 4.1 5.9 5.1 6.7 4.6 3.8 10.5 18.4 13 32.2 0.4 1.8 0.9 4.5 1.2 5.9 0.3 1.4 0.8 8.7 1.1 16.3 0.6 15.2 0.2 16 -5.4 11.3 -3.8 -3.2 -22.4 -8.6 -32.4 -9.5 -4.4 -0.4 -8.2 -0.4 -8.5 0 -0.2 0.4 1.7 2.4 4.3 4.4 2.5 1.9 5.6 5 6.9 6.8 1.2 1.8 4.6 5.3 7.5 7.9 3 2.5 6.3 6.3 7.4 8.4 1 2.2 3.3 5.9 5 8.4 5.3 7.6 10.3 17.3 11.6 22.5 0.6 2.8 1.8 6.2 2.5 7.7 3.1 6.1 5.5 5.8 -41.3 5.8 -23.6 0 -43.3 -0.4 -43.9 -0.8 -3 -2 -3.4 -5.5 -3.4 -31.1 l0 -26 -7.2 -4.7 c-4 -2.6 -9.9 -6.4 -13 -8.6 l-5.8 -3.9 -0.1 16.3 c-0.1 9 -0.4 21.2 -0.8 27.1 l-0.6 10.8 -11.5 -5.8 c-6.3 -3.2 -13.6 -6.7 -16.2 -7.7 l-4.8 -1.8 0 -27.4 0 -27.5 -6.2 -2.8 c-13.8 -6 -35.7 -12.6 -49.3 -14.7 -2.7 -0.4 -5.4 -0.9 -6 -1 -3.7 -1.2 -13.3 -3.4 -14.7 -3.4 -1.9 0 -2.6 5.8 -3.3 30 -0.3 8.5 -0.5 15.8 -0.5 16.1 0 1.2 -26.3 -4.2 -30.2 -6.2 -1.6 -0.9 -1.8 -3.2 -2 -21.7 l-0.3 -20.7 -10 0 -10 0 -0.3 18.6 c-0.3 21.8 1.2 19.9 -14.8 19.9 -10.5 0 -16 -1.2 -18.1 -3.8 -0.9 -1.1 -1.3 -6.6 -1.3 -19 l0 -17.4 -16.7 0.6 c-23.7 1 -56.2 3.6 -63.8 5.2 -1.6 0.3 -5.9 0.8 -9.5 1 -3.6 0.2 -8.1 0.9 -10 1.4 -1.9 0.6 -7.8 1.9 -13 3 -5.2 1.1 -12.3 2.7 -15.7 3.7 l-6.3 1.8 0 14.5 c0 8 -0.3 17.5 -0.6 21.2 l-0.7 6.7 -4.6 0.5 c-2.5 0.4 -6.2 0.8 -8.1 1.1 -1.9 0.2 -6.8 1.1 -10.8 1.9 -6.5 1.2 -7.4 1.2 -7.9 -0.1 -0.3 -0.8 -0.3 -8.8 0.1 -17.7 0.4 -8.8 0.4 -16.9 0.1 -17.8 -0.6 -1.5 -1.2 -1.5 -7.8 0.4 -4 1 -7.9 2.6 -8.7 3.3 -0.9 0.8 -3.4 2.2 -5.5 3.1 -2.2 0.9 -6.6 3.3 -9.7 5.3 l-5.7 3.6 0 37.3 -0.1 37.2 -27.2 0 -27.3 -0.1 -6 -4z m186 -149.1 c10.5 -2.1 37.2 -10.5 43.2 -13.6 2.1 -1.1 8.1 -3.9 13.3 -6.2 19.5 -8.7 21 -9.4 20.3 -10 -0.5 -0.4 -3.1 -1.2 -6 -1.8 -2.8 -0.6 -8.6 -2.7 -12.8 -4.7 -4.2 -1.9 -8.2 -3.5 -8.8 -3.5 -2.1 0 -19.4 -8.8 -24.4 -12.4 -2.6 -1.9 -7.3 -4.6 -10.3 -6 -3 -1.4 -9.3 -5 -14 -8 -4.7 -3 -9.4 -6 -10.5 -6.6 -1.1 -0.6 -3.8 -2.3 -6.1 -3.8 -2.2 -1.5 -7.6 -5 -12 -7.9 -4.3 -2.9 -11.6 -8 -16.2 -11.5 -4.5 -3.5 -10.2 -7.6 -12.6 -9.3 -2.4 -1.6 -7.2 -5.5 -10.7 -8.6 -3.5 -3.1 -9.7 -7.9 -13.6 -10.8 -4 -2.9 -7.6 -5.8 -8 -6.5 -0.5 -0.8 -3.9 -3.7 -7.8 -6.7 -3.8 -2.9 -7.3 -5.7 -7.8 -6.3 -0.4 -0.6 -0.6 23 -0.5 52.5 l0.3 53.6 3 4.8 c1.9 3 4.5 5.7 7 7 2.2 1.1 6.8 3.8 10.3 5.8 3.4 2 7.4 4 8.7 4.3 1.4 0.3 2.8 1 3.1 1.5 1.6 2.7 36 14.1 43.8 14.5 3.3 0.2 6.2 0.6 6.5 1 0.9 0.8 16.9 0.3 22.6 -0.8z m210.5 -0.2 c1.4 -0.3 3.6 -1 5 -1.6 1.4 -0.5 4.5 -1.4 7 -2 10 -2.1 25.3 -8.2 39 -15.5 16.4 -8.7 17.8 -9.9 20.8 -15.8 2 -4 2.1 -6 2.7 -55.2 0.3 -32.6 0.2 -51.5 -0.4 -52.5 -0.9 -1.2 -1.4 -1.1 -3.8 1.1 -1.5 1.4 -4.6 3.7 -6.8 5.2 -2.2 1.4 -6.2 4.9 -9 7.7 -2.7 2.7 -5.5 5 -6.2 5 -0.8 0 -3.3 1.9 -5.6 4.3 -2.3 2.4 -5.5 5.2 -7.2 6.3 -1.6 1 -6.1 4.3 -10 7.2 -3.8 3 -9.3 7.1 -12 9.1 -2.8 2.1 -5.6 4.5 -6.3 5.4 -0.7 0.8 -3.6 2.7 -6.5 4.1 -2.9 1.4 -7.9 4.7 -11.2 7.3 -3.3 2.6 -8 5.9 -10.5 7.2 -4.2 2.3 -14.5 8.9 -20 12.8 -1.3 1 -5.6 3.4 -9.5 5.4 -15.4 7.9 -22.1 11.5 -24.5 13.2 -1.3 0.9 -3.2 1.7 -4.1 1.7 -0.8 0 -3.8 1.2 -6.5 2.6 -5.4 2.8 -9.6 4.1 -16.4 5 -2.5 0.4 -4.7 0.8 -5 1.1 -0.9 0.8 4.4 4.2 10 6.5 3 1.2 10.5 4.7 16.6 7.9 6.1 3.1 12.6 6 14.5 6.4 1.9 0.4 6.3 1.9 9.9 3.4 5.8 2.5 19.1 6.2 26 7.4 3.5 0.6 27 0.1 30 -0.7z"/>
  <path d="M410.4 418.3 c-6.7 -2.4 -7.3 -2.8 -9.8 -7.8 -3.4 -6.8 -3.4 -12.3 0.2 -19.5 2.3 -4.7 3.3 -5.7 7.2 -7.2 8.8 -3.3 21 -1.9 25.5 3 2.9 3.1 6.5 12 6.5 16 0 3.4 -3.1 10.2 -5.7 12.4 -2.1 1.9 -12.6 5.8 -15.2 5.7 -0.9 0 -4.8 -1.2 -8.7 -2.6z"/>
  <path d="M636.5 419.9 c-7 -1.3 -9.3 -2.7 -11.8 -7.1 -4.5 -7.8 -5.1 -11.1 -3.2 -16.9 2.2 -6.4 7.9 -12.4 12.8 -13.3 2 -0.4 6.1 -0.7 9.1 -0.7 15.8 -0.2 23.7 15.3 15.7 31 -1.8 3.5 -2.8 4.3 -7.6 5.6 -7.1 2.1 -10.1 2.4 -15 1.4z"/>
 </g>
</svg>